<svg width="25" height="24" viewBox="0 0 25 24" fill="none" xmlns="http://www.w3.org/2000/svg">
<path d="M12.8252 22C18.348 22 22.8252 17.5228 22.8252 12C22.8252 6.47715 18.348 2 12.8252 2C7.30235 2 2.8252 6.47715 2.8252 12C2.8252 13.5997 3.20081 15.1116 3.86866 16.4525C4.04613 16.8088 4.10521 17.2161 4.00231 17.6006L3.40671 19.8267C3.14815 20.793 4.03221 21.677 4.99854 21.4185L7.22458 20.8229C7.60913 20.72 8.0164 20.7791 8.37272 20.9565C9.71356 21.6244 11.2255 22 12.8252 22Z" fill="white"/>
<path d="M15.8252 12C15.8252 12.5523 16.2729 13 16.8252 13C17.3775 13 17.8252 12.5523 17.8252 12C17.8252 11.4477 17.3775 11 16.8252 11C16.2729 11 15.8252 11.4477 15.8252 12Z" fill="url(#paint0_linear_2030_3300)"/>
<path d="M11.8252 12C11.8252 12.5523 12.2729 13 12.8252 13C13.3775 13 13.8252 12.5523 13.8252 12C13.8252 11.4477 13.3775 11 12.8252 11C12.2729 11 11.8252 11.4477 11.8252 12Z" fill="url(#paint1_linear_2030_3300)"/>
<path d="M7.8252 12C7.8252 12.5523 8.27291 13 8.8252 13C9.37748 13 9.8252 12.5523 9.8252 12C9.8252 11.4477 9.37748 11 8.8252 11C8.27291 11 7.8252 11.4477 7.8252 12Z" fill="url(#paint2_linear_2030_3300)"/>
<defs>
<linearGradient id="paint0_linear_2030_3300" x1="22.8252" y1="2" x2="3.41546" y2="16.2793" gradientUnits="userSpaceOnUse">
<stop stop-color="#40C4FF"/>
<stop offset="1" stop-color="#03A9F4"/>
</linearGradient>
<linearGradient id="paint1_linear_2030_3300" x1="22.8252" y1="2" x2="3.41546" y2="16.2793" gradientUnits="userSpaceOnUse">
<stop stop-color="#40C4FF"/>
<stop offset="1" stop-color="#03A9F4"/>
</linearGradient>
<linearGradient id="paint2_linear_2030_3300" x1="22.8252" y1="2" x2="3.41546" y2="16.2793" gradientUnits="userSpaceOnUse">
<stop stop-color="#40C4FF"/>
<stop offset="1" stop-color="#03A9F4"/>
</linearGradient>
</defs>
</svg>
