<svg width="22" height="22" viewBox="0 0 22 22" fill="none" xmlns="http://www.w3.org/2000/svg">
<path d="M7.82422 11C7.82422 11.5523 7.3765 12 6.82422 12C6.27193 12 5.82422 11.5523 5.82422 11C5.82422 10.4477 6.27193 10 6.82422 10C7.3765 10 7.82422 10.4477 7.82422 11Z" fill="#9A9BB1"/>
<path d="M11.8242 11C11.8242 11.5523 11.3765 12 10.8242 12C10.2719 12 9.82422 11.5523 9.82422 11C9.82422 10.4477 10.2719 10 10.8242 10C11.3765 10 11.8242 10.4477 11.8242 11Z" fill="#9A9BB1"/>
<path d="M15.8242 11C15.8242 11.5523 15.3765 12 14.8242 12C14.2719 12 13.8242 11.5523 13.8242 11C13.8242 10.4477 14.2719 10 14.8242 10C15.3765 10 15.8242 10.4477 15.8242 11Z" fill="#9A9BB1"/>
<path fill-rule="evenodd" clip-rule="evenodd" d="M21.5742 11C21.5742 5.06294 16.7613 0.25 10.8242 0.25C4.88716 0.25 0.0742188 5.06294 0.0742188 11C0.0742188 12.7183 0.477926 14.3445 1.19634 15.7869C1.30355 16.0021 1.32629 16.2219 1.27682 16.4068L0.681215 18.6328C0.273493 20.1566 1.66759 21.5507 3.19142 21.143L5.41746 20.5474C5.60235 20.4979 5.82213 20.5207 6.03737 20.6279C7.47974 21.3463 9.10591 21.75 10.8242 21.75C16.7613 21.75 21.5742 16.9371 21.5742 11ZM10.8242 1.75C15.9329 1.75 20.0742 5.89137 20.0742 11C20.0742 16.1086 15.9329 20.25 10.8242 20.25C9.34316 20.25 7.94542 19.9025 6.70613 19.2852C6.20872 19.0375 5.61395 18.9421 5.02975 19.0984L2.80371 19.694C2.39488 19.8034 2.02085 19.4293 2.13024 19.0205L2.72585 16.7945C2.88216 16.2103 2.78676 15.6155 2.53901 15.1181C1.92174 13.8788 1.57422 12.4811 1.57422 11C1.57422 5.89137 5.71558 1.75 10.8242 1.75Z" fill="#9A9BB1"/>
</svg>
