<svg width="63" height="62" viewBox="0 0 63 62" fill="none" xmlns="http://www.w3.org/2000/svg">
<path d="M29.7662 26.6035C29.7662 23.2898 32.4525 20.6035 35.7662 20.6035H46C49.3137 20.6035 52 23.2898 52 26.6035V34.2139C52 35.5337 50.9301 36.6035 49.6104 36.6035V36.6035C48.2906 36.6035 47.2208 37.6734 47.2208 38.9931V39.9425C47.2208 40.9341 46.0219 41.4306 45.3208 40.7295L42.9522 38.3609C41.8269 37.2357 40.3008 36.6035 38.7095 36.6035H35.7662C32.4525 36.6035 29.7662 33.9172 29.7662 30.6035V26.6035Z" fill="white"/>
<g filter="url(#filter0_d_2030_3716)">
<path d="M20 20.5781C20 17.2644 22.6863 14.5781 26 14.5781H36.2338C39.5475 14.5781 42.2338 17.2644 42.2338 20.5781V24.5781C42.2338 27.8918 39.5475 30.5781 36.2338 30.5781H33.5727C31.9988 30.5781 30.488 31.1965 29.3658 32.3L26.8193 34.8041C26.0996 35.5118 24.8831 35.002 24.8831 33.9926V33.0197C24.8831 31.6712 23.79 30.5781 22.4416 30.5781V30.5781C21.0931 30.5781 20 29.485 20 28.1366V20.5781Z" fill="url(#paint0_linear_2030_3716)"/>
</g>
<defs>
<filter id="filter0_d_2030_3716" x="0" y="0.578125" width="62.2338" height="60.5547" filterUnits="userSpaceOnUse" color-interpolation-filters="sRGB">
<feFlood flood-opacity="0" result="BackgroundImageFix"/>
<feColorMatrix in="SourceAlpha" type="matrix" values="0 0 0 0 0 0 0 0 0 0 0 0 0 0 0 0 0 0 127 0" result="hardAlpha"/>
<feOffset dy="6"/>
<feGaussianBlur stdDeviation="10"/>
<feComposite in2="hardAlpha" operator="out"/>
<feColorMatrix type="matrix" values="0 0 0 0 0.0509804 0 0 0 0 0.0392157 0 0 0 0 0.172549 0 0 0 0.1 0"/>
<feBlend mode="normal" in2="BackgroundImageFix" result="effect1_dropShadow_2030_3716"/>
<feBlend mode="normal" in="SourceGraphic" in2="effect1_dropShadow_2030_3716" result="shape"/>
</filter>
<linearGradient id="paint0_linear_2030_3716" x1="20" y1="14.5781" x2="41.5065" y2="30.4742" gradientUnits="userSpaceOnUse">
<stop stop-color="#40C4FF"/>
<stop offset="1" stop-color="#03A9F4"/>
</linearGradient>
</defs>
</svg>
